<svg width="220" height="180" viewBox="0 0 220 180" fill="none" xmlns="http://www.w3.org/2000/svg">
  <path d="M16 108C25 108 35 108 43 108C47 108 49 111 51 115L62 140C65 149 72 151 76 142L109 48C112 38 118 32 128 32H206" stroke="#1C2437" stroke-width="8.5" stroke-linecap="round" stroke-linejoin="round"/>
  <path d="M145 59C154 50 166 48 174 54C181 59 180 69 171 75C183 80 191 89 191 99C191 115 178 126 163 126C153 126 144 122 138 114" stroke="#1C2437" stroke-width="8" stroke-linecap="round" stroke-linejoin="round"/>
  <path d="M172 75C164 79 157 81 149 81" stroke="#1C2437" stroke-width="5" stroke-linecap="round"/>
</svg>
